HIERARCHY
ROOT pelvis
{
  OFFSET 0 100 0
  CHANNELS 6 Xposition Yposition Zposition Zrotation Xrotation Yrotation
  JOINT pelvis_right_femur
  {
    OFFSET -10.78128 -3.44521 -0.5502486
    CHANNELS 3 Zrotation Xrotation Yrotation
    JOINT right_femur_tibia
    {
      OFFSET -0.8047443 -44.0398 -0.1307829
      CHANNELS 3 Zrotation Xrotation Yrotation
      JOINT right_tibia_foot
      {
        OFFSET 3.006224 -47.83518 -5
        CHANNELS 3 Zrotation Xrotation Yrotation
        End Site
        {
          OFFSET 0 -5 15
        }
      }
    }
  }
  JOINT pelvis_left_femur
  {
    OFFSET 10.78128 -3.44521 -0.5502486
    CHANNELS 3 Zrotation Xrotation Yrotation
    JOINT left_femur_tibia
    {
      OFFSET 0.8047443 -44.0398 -0.1307829
      CHANNELS 3 Zrotation Xrotation Yrotation
      JOINT left_tibia_foot
      {
        OFFSET -4.370144 -48.10324 -4.275266
        CHANNELS 3 Zrotation Xrotation Yrotation
        End Site
        {
          OFFSET 0 -5 15
        }
      }
    }
  }
  JOINT pelvis_spine1
  {
    OFFSET 0 6.468898 -3.129235
    CHANNELS 3 Zrotation Xrotation Yrotation
    JOINT spine1
    {
      OFFSET 0 23.15396 4.99043
      CHANNELS 3 Zrotation Xrotation Yrotation
      JOINT spine2
      {
        OFFSET 0 20.79997 -5.064912
        CHANNELS 3 Zrotation Xrotation Yrotation
        JOINT neck
        {
          OFFSET 0 14.38658 9.616178
          CHANNELS 3 Zrotation Xrotation Yrotation
          End Site
          {
            OFFSET 0 20 0
          }
        }
      }
      JOINT right_manubrium
      {
        OFFSET -5.722621 16.35077 3.967754
        CHANNELS 3 Zrotation Xrotation Yrotation
        JOINT right_clavicle
        {
          OFFSET -13.16364 1.694482 -4.693211
          CHANNELS 3 Zrotation Xrotation Yrotation
          JOINT right_humerus
          {
            OFFSET -28.5034 -0.3100689 -2.792744
            CHANNELS 3 Zrotation Xrotation Yrotation
            JOINT right_radius
            {
              OFFSET -25.15693 0.02248979 -1.271978
              CHANNELS 3 Zrotation Xrotation Yrotation
              End Site
              {
                OFFSET -15 0 0
              }
            }
          }
        }
      }
      JOINT left_manubrium
      {
        OFFSET 5.722621 16.35077 3.967754
        CHANNELS 3 Zrotation Xrotation Yrotation
        JOINT left_clavicle
        {
          OFFSET 13.16364 1.694482 -4.693211
          CHANNELS 3 Zrotation Xrotation Yrotation
          JOINT left_humerus
          {
            OFFSET 29.39168 -1.063119 -2.237045
            CHANNELS 3 Zrotation Xrotation Yrotation
            JOINT left_radius
            {
              OFFSET 24.59957 -0.9528479 0.9047498
              CHANNELS 3 Zrotation Xrotation Yrotation
              End Site
              {
                OFFSET 15 -0 -0
              }
            }
          }
        }
      }
    }
  }
}
MOTION
Frames: 21
Frame Time: 0.0416666666667
0 103.5113 0 2.285243 -1.131645 -0.174065 2.39475 -11.3562 9.154425 -0 39.17865 -0 -4.553276 -18.36279 -2.502321 -8.480281 8.652576 -22.68511 -0 7.038501 -0 16.56588 -10.03966 29.3142 -4.929897 -5.00026 5.248759 2.896671 10.72347 -7.625952 1.240295 22.525 5.952481 2.126449 -24.4477 9.157823 6.454245 -20.67947 12.10194 85.61301 37.63112 -17.34042 -0 0 16.05549 -7.651166 8.411802 5.624769 4.432755 -18.40233 -2.071163 -91.37197 20.46676 19.84748 0 0 -13.93122 14.54468 14.06963 -3.661833
0.2939967 103.6064 1.386856 1.909375 -0.7905619 -0.376371 2.918454 -13.25328 9.148991 -0 38.7037 -0 -4.977644 -17.75239 -2.493841 -8.205134 8.810216 -22.53646 -0 6.651737 -0 15.98625 -11.43523 29.16787 -4.706102 -4.760498 5.203248 2.920781 10.53896 -7.694401 1.290622 22.32102 6.021657 2.262953 -24.80407 9.232054 6.336434 -20.61904 12.00383 85.56326 37.10325 -17.45489 -0 0 16.09693 -7.308088 8.131167 5.289272 4.925476 -18.80247 -1.66464 -91.59798 20.50682 19.85416 0 0 -13.9346 14.90841 14.43254 -3.999654
0.5919764 103.4328 3.268295 1.074479 0.3009175 -0.4474395 4.065109 -19.19745 8.330331 -0 34.00818 -0 -5.701411 -14.4244 -2.414134 -7.418452 9.854558 -21.38949 -0 5.790378 -0 13.07776 -15.94883 27.42185 -4.198908 -3.876512 4.94823 2.963762 9.980502 -7.943621 1.300648 21.51552 6.518079 2.888643 -25.30049 9.303378 6.162092 -20.02007 11.77188 85.61485 36.22027 -18.38442 -0 0 15.81112 -7.840638 8.507403 4.867567 6.406335 -20.11723 -0.9653095 -91.65572 20.786 19.26598 0 0 -15.40041 14.25631 15.1394 -3.27054
0.8824668 103.0755 5.508598 0.3766292 1.124899 -0.3771286 4.98009 -23.38353 7.985753 -0 30.96196 -0 -6.203922 -12.08002 -2.353047 -6.796539 10.66327 -20.60775 -0 5.496317 -0 10.61832 -18.92352 25.88607 -3.727222 -3.262304 4.702219 3.016096 9.576845 -8.150327 1.325625 20.93284 6.866314 3.330336 -25.72985 9.380304 6.024287 -19.59957 11.56789 85.65316 35.51286 -19.06602 -0 0 15.66721 -8.082523 8.686147 4.573306 7.343163 -20.92073 -0.4869435 -91.86844 21.31452 19.10666 0 0 -16.29229 13.4538 15.60859 -2.265358
1.161439 102.5772 8.113195 -0.3008127 1.907267 -0.1804932 5.857647 -27.07718 7.751437 -0 28.13575 -0 -6.611018 -9.881463 -2.268069 -6.195656 11.46681 -19.85605 -0 5.597874 -0 8.022491 -21.31235 24.12371 -3.223337 -2.711874 4.422059 3.069588 9.210595 -8.347534 1.354395 20.39516 7.181278 3.736797 -26.1155 9.442866 5.901029 -19.18137 11.36041 85.71471 34.90096 -19.7146 -0 0 15.54144 -8.323808 8.873128 4.370265 8.066413 -21.5301 -0.1498876 -92.1127 21.99865 19.083 0 0 -17.08844 12.38722 15.92439 -0.9224665
1.426025 101.9729 11.08987 -0.9338354 2.626253 0.1297918 6.671631 -30.19042 7.561317 -0 25.49763 -0 -6.932722 -7.860156 -2.1566 -5.631297 12.23712 -19.11602 -0 6.150323 -0 5.387599 -23.02848 22.1707 -2.701748 -2.231055 4.11752 3.118708 8.886312 -8.5224 1.381535 19.91991 7.451021 4.094231 -26.43597 9.476836 5.792445 -18.75753 11.162 85.81517 34.41608 -20.31578 -0 0 15.39423 -8.589365 9.086083 4.271479 8.560371 -21.94908 0.02469685 -92.33518 22.75322 19.13002 0 0 -17.8079 11.15022 16.06029 0.6335206
1.674214 101.3011 14.46292 -1.530022 3.283991 0.5393048 7.426999 -32.74751 7.357357 -0 22.96245 -0 -7.198343 -5.982901 -2.020947 -5.093394 12.97129 -18.34175 -0 7.263151 -0 2.723361 -24.05381 20.01227 -2.152313 -1.808234 3.786447 3.163819 8.59735 -8.673693 1.400744 19.50675 7.675381 4.398499 -26.6908 9.473058 5.693595 -18.30664 10.97907 85.97494 34.05658 -20.88456 -0 0 15.17283 -8.904123 9.347426 4.282055 8.829921 -22.20142 0.03656075 -92.49656 23.52939 19.19179 0 0 -18.4836 9.796691 16.0076 2.336663
1.904606 100.61 18.26442 -2.086341 3.858008 1.026265 8.109422 -34.65719 7.101636 -0 20.54963 -0 -7.429148 -4.283649 -1.873923 -4.581413 13.63583 -17.50348 -0 9.11129 -0 0.09837104 -24.29571 17.68324 -1.569802 -1.444396 3.433407 3.2068 8.3481 -8.798558 1.403214 19.16896 7.847319 4.633148 -26.87365 9.421259 5.604216 -17.81792 10.82439 86.21277 33.82652 -21.42558 -0 0 14.82269 -9.282501 9.674116 4.413029 8.856202 -22.29275 -0.1171741 -92.55906 24.27927 19.22673 0 0 -19.11592 8.388136 15.75436 4.117416
2.117011 99.9646 22.52802 -2.59144 4.305059 1.556303 8.693488 -35.74762 6.771139 -0 18.34907 -0 -7.644083 -2.845263 -1.737725 -4.099465 14.15834 -16.57972 -0 11.9413 -0 -2.377737 -23.62911 15.26081 -0.952436 -1.144865 3.073355 3.249951 8.152099 -8.892548 1.378055 18.92743 7.956158 4.776086 -26.97302 9.308887 5.528363 -17.28954 10.71608 86.54139 33.72578 -21.93618 -0 0 14.29122 -9.732732 10.07681 4.675812 8.612472 -22.22352 -0.4337677 -92.48934 24.95053 19.20522 0 0 -19.67969 6.99446 15.29243 5.899162
2.313356 99.45287 27.27855 -3.017831 4.554128 2.076263 9.138704 -35.76294 6.36019 -0 16.51714 -0 -7.856456 -1.803526 -1.645054 -3.658652 14.40435 -15.56116 -0 16.06192 -0 -4.557976 -21.93016 12.8715 -0.3098049 -0.9155266 2.741438 3.293235 8.034769 -8.946983 1.313235 18.81021 7.988834 4.804279 -26.96698 9.119952 5.476252 -16.73413 10.67827 86.95834 33.74505 -22.40152 -0 0 13.53916 -10.25988 10.55718 5.077546 8.076593 -21.99789 -0.8977666 -92.26348 25.48147 19.11298 0 0 -20.12716 5.695238 14.62442 7.592973
2.498579 99.18533 32.51574 -3.31499 4.505221 2.510484 9.388851 -34.3926 5.88678 -0 15.24611 -0 -8.069278 -1.332055 -1.634986 -3.277835 14.14986 -14.45555 -0 21.7965 -0 -6.289532 -19.14499 10.68304 0.3261846 -0.7547272 2.50489 3.329407 8.034244 -8.945221 1.199608 18.84808 7.933328 4.704774 -26.81882 8.836092 5.464406 -16.18633 10.73843 87.43003 33.85681 -22.78579 -0 0 12.56553 -10.86946 11.10328 5.612145 7.255039 -21.63922 -1.470012 -91.87928 25.80173 18.95947 0 0 -20.3983 4.575458 13.77492 9.097368
2.680467 99.28226 38.19205 -3.406323 4.041881 2.766497 9.373503 -31.35756 5.396566 -0 14.6806 -0 -8.266396 -1.590264 -1.738436 -2.982392 13.06296 -13.29166 -0 29.3505 -0 -7.469915 -15.39981 8.88536 0.8863849 -0.6411106 2.471741 3.336518 8.196496 -8.857485 1.039543 19.06492 7.784643 4.492493 -26.47515 8.442209 5.511789 -15.70989 10.91883 87.87046 34.00864 -23.01748 -0 0 11.44758 -11.57507 11.68755 6.249915 6.218126 -21.2099 -2.077471 -91.37165 25.84198 18.7854 0 0 -20.44699 3.713585 12.80381 10.30499
2.866915 99.83673 44.19088 -3.201109 3.07161 2.760611 9.01688 -26.57819 4.95314 -0 14.76553 -0 -8.400462 -2.619471 -1.949044 -2.796683 10.73268 -12.11521 -0 38.54818 -0 -8.107217 -11.13082 7.670632 1.254212 -0.5220451 2.779363 3.270879 8.556974 -8.636919 0.8593161 19.46253 7.551851 4.228053 -25.87396 7.939315 5.627219 -15.39639 11.21995 88.12663 34.12823 -22.97214 -0 0 10.3822 -12.40917 12.27168 6.933984 5.13394 -20.82294 -2.613401 -90.82114 25.55765 18.65758 0 0 -20.2841 3.161512 11.81515 11.12006
3.059967 100.8511 50.32323 -2.633718 1.598418 2.465836 8.268147 -20.38149 4.604406 -0 15.09295 -0 -8.386484 -4.225359 -2.190967 -2.723491 6.804884 -10.96879 -0 48.46615 -0 -8.335577 -7.134958 7.218154 1.283256 -0.3177021 3.536511 3.070441 9.103061 -8.225017 0.7159456 20.00755 7.260633 4.013276 -24.97186 7.36163 5.785611 -15.34417 11.60004 87.99822 34.14789 -22.46811 -0 0 9.685295 -13.42507 12.81604 7.598104 4.262944 -20.61438 -2.960846 -90.33767 24.96665 18.63766 0 0 -20.01101 2.920791 10.94705 11.49015
3.250531 102.1739 56.36684 -1.727562 -0.2064912 1.953103 7.169789 -13.57257 4.333441 -0 14.9539 -0 -8.128529 -5.983338 -2.324573 -2.706489 1.247212 -9.85761 -0 57.20806 -0 -8.338556 -4.367093 7.657792 0.8731937 0.04219606 4.712786 2.682786 9.730629 -7.578859 0.678936 20.6362 6.944258 3.937192 -23.78666 6.7823 5.903947 -15.61443 11.9676 87.31679 34.03599 -21.3022 -0 0 9.689628 -14.66386 13.27332 8.210396 3.862464 -20.65031 -3.043324 -90.01302 24.18364 18.73272 0 0 -19.77969 2.925736 10.32734 11.44812
3.42234 103.4991 62.14803 -0.6472051 -2.016643 1.368091 5.932813 -7.152173 4.039198 -0 13.77604 -0 -7.603645 -7.506379 -2.229965 -2.595486 -5.40287 -8.726135 -0 62.2896 -0 -8.212061 -3.425809 8.983311 0.09086803 0.562072 6.04892 2.115566 10.24267 -6.719639 0.7786722 21.28268 6.62632 3.990448 -22.4234 6.288232 5.849428 -16.18963 12.21027 86.05619 33.79386 -19.33967 -0 0 10.55379 -16.07962 13.55033 8.810061 4.012026 -20.81846 -2.879125 -89.87392 23.41151 18.87945 0 0 -19.64532 3.046825 10.00686 11.13885
3.567327 104.4721 67.61469 0.3232869 -3.488911 0.8343052 4.902299 -1.772694 3.608126 -0 11.67262 -0 -6.935705 -8.81712 -1.911279 -2.174823 -12.11796 -7.487914 -0 61.82526 -0 -7.919949 -4.087553 10.97619 -0.7803865 1.157492 7.130184 1.466142 10.43689 -5.763673 0.963103 21.90203 6.314688 4.041837 -21.04919 5.934703 5.506115 -16.97799 12.25566 84.37817 33.40621 -16.62295 -0 0 12.14232 -17.49841 13.49509 9.484608 4.510456 -20.8468 -2.585175 -89.88844 22.86183 19.00941 0 0 -19.43769 3.125146 9.925718 10.78887
3.698112 104.8426 72.84175 0.9050761 -4.424926 0.3750571 4.352857 2.549312 3.041178 -0 9.43499 -0 -6.322962 -10.34627 -1.486053 -1.296821 -17.88247 -6.118646 -0 55.75224 -0 -7.422109 -5.445739 13.24306 -1.386813 1.68903 7.643639 0.8792375 10.23824 -4.883986 1.128115 22.4532 6.017123 3.93897 -19.83424 5.72625 4.862195 -17.86857 12.11325 82.555 32.8219 -13.41727 -0 0 14.12806 -18.71437 13.00598 10.30163 5.006192 -20.49998 -2.295765 -90.01933 22.64472 19.14177 0 0 -18.8607 3.03463 9.958154 10.61314
3.844449 104.5522 77.98104 0.9790244 -4.807586 -0.06992608 4.291583 6.180244 2.481334 -0 7.896598 -0 -5.861619 -12.43811 -1.069256 -0.02899162 -22.19266 -4.73216 -0 45.93049 -0 -6.789939 -6.584656 15.35561 -1.547837 2.015262 7.590454 0.4580229 9.75236 -4.220606 1.204142 22.86976 5.755753 3.636393 -18.90437 5.640414 4.033914 -18.77949 11.85538 80.83725 32.02183 -10.13503 -0 0 16.20824 -19.66316 12.18852 11.27159 5.253907 -19.76145 -2.066305 -90.25385 22.71914 19.38957 0 0 -17.76292 2.734347 9.991385 10.72841
4.042666 103.7118 83.2097 0.6440604 -4.733131 -0.5774392 4.469291 9.452368 2.109153 -0 7.432811 -0 -5.466833 -14.91222 -0.6998241 1.341325 -25.11179 -3.542484 -0 35.08671 -0 -6.155174 -7.085949 17.00281 -1.354799 2.038833 7.247826 0.214219 9.19526 -3.820924 1.204585 23.07061 5.557183 3.21823 -18.31454 5.653859 3.205007 -19.65847 11.56537 79.37581 31.08037 -7.184668 -0 0 18.21097 -20.47696 11.34847 12.35524 5.22541 -18.81518 -1.873193 -90.58695 22.93705 19.87523 0 0 -16.26536 2.262244 9.958922 11.14249
4.331118 102.5258 88.69752 0.15205 -4.352191 -1.191917 4.543255 12.48552 2.04075 -0 8.040928 -0 -4.943575 -17.09407 -0.357051 2.435913 -26.97176 -2.755395 -0 25.63945 -0 -5.605258 -7.027922 18.06774 -1.071008 1.738014 6.964224 0.08723508 8.778991 -3.64469 1.199801 23.00473 5.432573 2.826079 -18.03909 5.743664 2.543856 -20.45729 11.30411 78.23427 30.13107 -4.857729 -0 0 20.0573 -21.36888 10.80502 13.47619 5.027008 -17.89269 -1.688396 -91.00045 23.13039 20.65372 0 0 -14.64351 1.681379 9.822639 11.80296
